<?xml version="1.0" encoding="UTF-8"?>
<svg width="200" height="200" viewBox="0 0 200 200" xmlns="http://www.w3.org/2000/svg">
  <!-- Parrot Head -->
  <ellipse cx="100" cy="100" rx="70" ry="80" fill="#5cb85c"/>
  
  <!-- Parrot Face -->
  <ellipse cx="100" cy="110" rx="50" ry="60" fill="#ffeb3b"/>
  
  <!-- Parrot Eyes -->
  <circle cx="80" cy="80" r="10" fill="white"/>
  <circle cx="120" cy="80" r="10" fill="white"/>
  <circle cx="80" cy="80" r="5" fill="black"/>
  <circle cx="120" cy="80" r="5" fill="black"/>
  
  <!-- Parrot Beak -->
  <path d="M85,110 Q100,130 115,110" stroke="black" stroke-width="2" fill="none"/>
  <path d="M90,110 L100,125 L110,110" fill="#ff5722"/>
  
  <!-- Lawyer Glasses -->
  <rect x="70" y="75" width="20" height="10" rx="5" fill="none" stroke="black" stroke-width="2"/>
  <rect x="110" y="75" width="20" height="10" rx="5" fill="none" stroke="black" stroke-width="2"/>
  <line x1="90" y1="80" x2="110" y2="80" stroke="black" stroke-width="2"/>
  
  <!-- Lawyer Wig -->
  <path d="M50,60 Q100,30 150,60" fill="#f5f5f5"/>
  <path d="M55,60 Q65,50 75,60" fill="#f5f5f5"/>
  <path d="M75,60 Q85,50 95,60" fill="#f5f5f5"/>
  <path d="M95,60 Q105,50 115,60" fill="#f5f5f5"/>
  <path d="M115,60 Q125,50 135,60" fill="#f5f5f5"/>
  <path d="M135,60 Q145,50 155,60" fill="#f5f5f5"/>
  
  <!-- Speech Bubble -->
  <path d="M140,100 Q170,100 170,80 Q170,60 140,60 L130,60 L135,50 L120,60 L100,60 Q70,60 70,80 Q70,100 100,100 Z" fill="white" stroke="black" stroke-width="2"/>
  
  <!-- RARA Text -->
  <text x="105" y="85" font-family="Arial" font-size="16" font-weight="bold" text-anchor="middle">RARA</text>
</svg>
